{
    "asset": {
        "version": "2.0",
        "generator": "Open Asset Import Library (assimp v5.0.5eb040c7)"
    },
    "accessors": [
        {
            "bufferView": 0,
            "byteOffset": 0,
            "componentType": 5126,
            "count": 11437,
            "type": "VEC3",
            "max": [
                0.7071760296821594,
                1.7569899559020997,
                0.14436699450016023
            ],
            "min": [
                -0.7068769931793213,
                0.15032100677490235,
                -0.138032004237175
            ]
        },
        {
            "bufferView": 1,
            "byteOffset": 0,
            "componentType": 5126,
            "count": 11437,
            "type": "VEC3",
            "max": [
                0.9999638795852661,
                0.9993723630905151,
                0.9999982118606567
            ],
            "min": [
                -0.9999970197677612,
                -0.9995529055595398,
                -0.9999715089797974
            ]
        },
        {
            "bufferView": 2,
            "byteOffset": 0,
            "componentType": 5126,
            "count": 11437,
            "type": "VEC2",
            "max": [
                0.9953240156173706,
                0.9926999807357788
            ],
            "min": [
                0.007899999618530274,
                0.00470501184463501
            ]
        },
        {
            "bufferView": 3,
            "byteOffset": 0,
            "componentType": 5125,
            "count": 62724,
            "type": "SCALAR",
            "max": [
                11436
            ],
            "min": [
                0
            ]
        }
    ],
    "buffers": [
        {
            "byteLength": 616880,
            "uri": "result.bin"
        }
    ],
    "bufferViews": [
        {
            "buffer": 0,
            "byteOffset": 0,
            "byteLength": 137244,
            "target": 34962
        },
        {
            "buffer": 0,
            "byteOffset": 137244,
            "byteLength": 137244,
            "target": 34962
        },
        {
            "buffer": 0,
            "byteOffset": 274488,
            "byteLength": 91496,
            "target": 34962
        },
        {
            "buffer": 0,
            "byteOffset": 365984,
            "byteLength": 250896,
            "target": 34963
        }
    ],
    "materials": [
        {
            "name": "DefaultMaterial",
            "pbrMetallicRoughness": {
                "baseColorFactor": [
                    0.6000000238418579,
                    0.6000000238418579,
                    0.6000000238418579,
                    1.0
                ],
                "metallicFactor": 0.0
            }
        },
        {
            "name": "SMPLX-male.001",
            "pbrMetallicRoughness": {
                "baseColorFactor": [
                    0.6000000238418579,
                    0.6000000238418579,
                    0.6000000238418579,
                    1.0
                ],
                "metallicFactor": 0.0
            }
        }
    ],
    "meshes": [
        {
            "name": "SMPLX-mesh-male_SMPLX-shapes-male",
            "primitives": [
                {
                    "mode": 4,
                    "material": 1,
                    "indices": 3,
                    "attributes": {
                        "POSITION": 0,
                        "NORMAL": 1,
                        "TEXCOORD_0": 2
                    }
                }
            ]
        }
    ],
    "nodes": [
        {
            "name": "input.obj",
            "children": [
                1
            ]
        },
        {
            "name": "SMPLX-mesh-male_SMPLX-shapes-male",
            "mesh": 0
        }
    ],
    "scenes": [
        {
            "nodes": [
                0
            ]
        }
    ],
    "scene": 0
}